<?xml version="1.0" ?><!DOCTYPE svg  PUBLIC '-//W3C//DTD SVG 1.1//EN'  'http://www.w3.org/Graphics/SVG/1.1/DTD/svg11.dtd'><svg enable-background="new 0 0 512 512" id="Layer_1" version="1.1" viewBox="0 0 512 512"  xml:space="preserve" xmlns="http://www.w3.org/2000/svg" xmlns:xlink="http://www.w3.org/1999/xlink"><g><path d="M47.933,404.576c-7.945,7.946-12.321,18.51-12.321,29.746c0,11.237,4.376,21.801,12.321,29.743   c7.945,7.947,18.51,12.323,29.747,12.323c11.236,0,21.8-4.376,29.746-12.322c5.617-5.619,9.456-12.56,11.22-20.217l28.358-28.357   c0.001-0.001,0.002-0.003,0.004-0.004s0.003-0.003,0.004-0.005l17.531-17.531l21.987,21.987c1.688,1.688,3.978,2.636,6.364,2.636   c2.388,0,4.677-0.948,6.364-2.637l21.254-21.258c3.515-3.515,3.515-9.213,0-12.728L200.85,366.29l192.32-138.969   c2.116-1.529,3.465-3.903,3.693-6.505l9.27-105.193c0.234-2.652-0.719-5.271-2.601-7.154c-1.883-1.882-4.503-2.832-7.154-2.601   l-105.193,9.27c-2.602,0.229-4.976,1.577-6.505,3.693L145.709,311.149l-19.663-19.664c-1.688-1.688-3.978-2.636-6.364-2.636   s-4.676,0.948-6.364,2.636l-21.256,21.256c-3.515,3.515-3.515,9.214,0,12.729l21.985,21.985l-45.9,45.899   C60.49,395.121,53.551,398.96,47.933,404.576z M77.68,458.389c-6.429,0-12.473-2.504-17.02-7.052   c-4.546-4.544-7.049-10.586-7.049-17.015c0-6.428,2.504-12.472,7.048-17.017c3.635-3.633,8.23-5.969,13.292-6.755   c0.001,0,0.002,0,0.003,0c1.229-0.191,2.483-0.288,3.729-0.288c6.429,0,12.472,2.502,17.013,7.04   c0.676,0.677,1.307,1.39,1.891,2.134c4.09,5.212,5.894,11.977,4.862,18.609c-0.785,5.063-3.12,9.661-6.752,13.294   C90.151,455.886,84.108,458.389,77.68,458.389z M296.861,132.707l90.398-7.966l-7.966,90.398L187.958,353.397l-8.313-8.314   l161.979-161.978c3.515-3.515,3.515-9.214,0-12.729c-3.515-3.513-9.212-3.515-12.729,0L166.916,332.354l-8.314-8.314   L296.861,132.707z M119.682,310.577l81.739,81.741l-8.527,8.528l-21.949-21.949c-0.013-0.013-0.022-0.026-0.035-0.039   l-37.77-37.768c-0.004-0.004-0.009-0.008-0.013-0.012l-21.974-21.974L119.682,310.577z M151.815,385.224l-11.172,11.172   l-25.039-25.042l11.17-11.17L151.815,385.224z M102.877,384.081l25.039,25.042l-10.754,10.754c-0.058-0.158-0.126-0.312-0.186-0.47   c-0.127-0.335-0.261-0.668-0.396-1c-0.162-0.4-0.331-0.797-0.506-1.191c-0.146-0.33-0.297-0.656-0.451-0.982   c-0.186-0.391-0.379-0.777-0.576-1.162c-0.164-0.32-0.329-0.638-0.501-0.953c-0.21-0.384-0.429-0.763-0.65-1.141   c-0.18-0.305-0.357-0.611-0.545-0.912c-0.237-0.381-0.485-0.755-0.734-1.129c-0.191-0.287-0.379-0.575-0.577-0.857   c-0.271-0.387-0.557-0.763-0.842-1.141c-0.194-0.258-0.383-0.519-0.584-0.772c-0.328-0.415-0.674-0.817-1.019-1.221   c-0.175-0.204-0.341-0.414-0.521-0.615c-0.532-0.599-1.082-1.185-1.651-1.755c-0.524-0.524-1.062-1.031-1.608-1.523   c-0.184-0.165-0.373-0.32-0.559-0.482c-0.368-0.32-0.737-0.64-1.114-0.946c-0.229-0.185-0.462-0.361-0.693-0.542   c-0.346-0.268-0.69-0.535-1.043-0.792c-0.25-0.183-0.505-0.358-0.759-0.534c-0.344-0.24-0.689-0.477-1.04-0.705   c-0.265-0.173-0.53-0.34-0.798-0.506c-0.35-0.217-0.702-0.43-1.057-0.635c-0.275-0.16-0.55-0.316-0.828-0.47   c-0.359-0.198-0.723-0.389-1.088-0.575c-0.279-0.143-0.557-0.286-0.838-0.422c-0.379-0.184-0.762-0.357-1.146-0.529   c-0.274-0.122-0.547-0.248-0.824-0.365c-0.412-0.174-0.83-0.334-1.248-0.494c-0.21-0.081-0.416-0.172-0.627-0.249L102.877,384.081z   "/><path d="M186.133,201.114V91.693c0-4.971-4.029-9-9-9s-9,4.029-9,9v109.421c0,4.971,4.029,9,9,9S186.133,206.085,186.133,201.114z"/><path d="M290.617,79.755V44.611c0-4.971-4.029-9-9-9s-9,4.029-9,9v35.144c0,4.971,4.029,9,9,9S290.617,84.726,290.617,79.755z"/><path d="M301.887,334.868c0,4.971,4.029,9,9,9h109.42c4.971,0,9-4.029,9-9s-4.029-9-9-9h-109.42   C305.916,325.868,301.887,329.897,301.887,334.868z"/><path d="M467.389,221.382l-35.143,0.001c-4.971,0-9,4.029-9,9s4.029,9,9,9l35.143-0.001c4.971,0,9-4.029,9-9   S472.359,221.382,467.389,221.382z"/><path d="M432.089,92.642l11.682-11.682c3.515-3.515,3.515-9.214,0-12.729c-3.516-3.514-9.213-3.514-12.729,0L419.36,79.913   c-3.515,3.515-3.515,9.214,0,12.729c1.758,1.757,4.061,2.636,6.364,2.636S430.331,94.398,432.089,92.642z"/></g></svg>