<?xml version="1.0" ?><!DOCTYPE svg  PUBLIC '-//W3C//DTD SVG 1.0//EN'  'http://www.w3.org/TR/2001/REC-SVG-20010904/DTD/svg10.dtd'><svg enable-background="new 0 0 24 24" id="Layer_1" version="1.0" viewBox="0 0 24 24" xml:space="preserve" xmlns="http://www.w3.org/2000/svg" xmlns:xlink="http://www.w3.org/1999/xlink"><path d="M6,12c0,0,0.8-1.2,1.4-2.1c0.4-0.6,0.9-1,1.6-1.2  l2.1-0.6c1.2-0.3,2.4,0.3,2.8,1.4l0.6,1.3c0.3,0.8,0.9,1.3,1.7,1.6L18,13" fill="none" stroke="#000000" stroke-miterlimit="10" stroke-width="2"/><circle cx="13" cy="4" r="2"/><path d="M10.6,8.1l-1,4.6c-0.2,0.7,0.1,1.4,0.5,1.9l3.4,3.7l-1-4.7l0.9-4.1l-0.7-1.4H10.6z"/><g><path d="M14.6,22h2.1c-0.4-1-1.4-3.5-1.8-4.7L12,13.1l-1.6,1.2l2.7,3.6L14.6,22z"/><polygon points="7.6,22 9.9,19.4 10.7,17 9.2,15.3 8.3,18.2 5.3,22  "/></g></svg>